<svg xmlns="http://www.w3.org/2000/svg" xmlns:svg="http://www.w3.org/2000/svg" id="svg2" width="1536" height="1792" version="1.1" viewBox="0 0 1536 1792"><metadata id="metadata10"/><path id="path4" d="m 1468,380 c 18.6667,18.66667 34.6667,44 48,76 13.3333,32 20,61.33333 20,88 l 0,1152 c 0,26.6667 -9.3333,49.3333 -28,68 -18.6667,18.6667 -41.3333,28 -68,28 l -1344,0 c -26.66667,0 -49.33333,-9.3333 -68,-28 C 9.33333,1745.3333 0,1722.6667 0,1696 L 0,96 C 0,69.33333 9.33333,46.66667 28,28 46.66667,9.33333 69.33333,0 96,0 l 896,0 c 26.6667,0 56,6.66667 88,20 32,13.33333 57.3333,29.33333 76,48 z m -444,-244 0,376 376,0 c -6.6667,-19.33333 -14,-33 -22,-41 L 1065,158 c -8,-8 -21.6667,-15.33333 -41,-22 z m 384,1528 0,-1024 -416,0 c -26.6667,0 -49.3333,-9.33333 -68,-28 -18.6667,-18.66667 -28,-41.33333 -28,-68 l 0,-416 -768,0 0,1536 z"/></svg>