<svg xmlns="http://www.w3.org/2000/svg" xmlns:svg="http://www.w3.org/2000/svg" id="svg2" width="1536" height="1792" version="1.1" viewBox="0 0 1536 1792"><metadata id="metadata10"/><path id="path4" d="m 1468,380 c 18.6667,18.66667 34.6667,44 48,76 13.3333,32 20,61.33333 20,88 l 0,1152 c 0,26.6667 -9.3333,49.3333 -28,68 -18.6667,18.6667 -41.3333,28 -68,28 l -1344,0 c -26.66667,0 -49.33333,-9.3333 -68,-28 C 9.33333,1745.3333 0,1722.6667 0,1696 L 0,96 C 0,69.33333 9.33333,46.66667 28,28 46.66667,9.33333 69.33333,0 96,0 l 896,0 c 26.6667,0 56,6.66667 88,20 32,13.33333 57.3333,29.33333 76,48 z m -60,146.10169 C 1408,501.31222 1386,479 1378,471 L 1065,158 c -8,-8 -27.0583,-29.95638 -58.3559,-29.966 L 896,128 l -768,0 0,1536 1280,0 0,-1024 z"/><g id="g4230" transform="matrix(3.197894,0,0,3.197894,214.12476,337.7532)"><g style="fill:#000;fill-opacity:1" id="g4" transform="translate(-46.8,-19.199999)"><path style="fill:#000;fill-opacity:1" id="path6" d="m 60.9,232 c 0,12.7 -1,16.9 -3.6,20 -2.3,2.5 -6.1,3.7 -10.5,4.1 l 1,7.6 c 5.2,0 12.2,-1.8 16.5,-6 4.7,-4.8 6.4,-11.5 6.4,-21.9 l 0,-48.2 -9.7,0 0,44.4 z m 72.2,-5.8 c 0,5.5 0.1,10.3 0.4,14.5 l -8.6,0 -0.5,-8.7 -0.2,0 c -2.5,4.3 -8.1,9.9 -17.6,9.9 -8.3,0 -18.3,-4.6 -18.3,-23.3 l 0,-31.1 9.7,0 0,29.5 c 0,10.1 3.1,16.9 11.9,16.9 6.5,0 11,-4.5 12.7,-8.8 0.5,-1.4 0.9,-3.2 0.9,-4.9 l 0,-32.6 9.7,0 0,38.6 z m 18.2,-21.3 c 0,-6.8 -0.2,-12.3 -0.4,-17.3 l 8.7,0 0.4,9.1 0.2,0 c 4,-6.5 10.2,-10.3 18.9,-10.3 12.8,0 22.5,10.9 22.5,27 0,19.1 -11.6,28.5 -24.2,28.5 -7,0 -13.2,-3.1 -16.4,-8.3 l -0.2,0 0,28.9 -9.6,0 0,-57.6 z m 9.5,14.2 c 0,1.4 0.2,2.7 0.4,4 1.8,6.7 7.6,11.3 14.5,11.3 10.2,0 16.1,-8.3 16.1,-20.5 0,-10.7 -5.6,-19.8 -15.8,-19.8 -6.6,0 -12.7,4.7 -14.6,12 -0.3,1.2 -0.7,2.6 -0.7,4 l 0,9 z m 57.9,-31.5 11.6,31.4 c 1.2,3.5 2.5,7.7 3.4,10.9 l 0.2,0 c 1,-3.2 2.1,-7.2 3.4,-11.1 l 10.5,-31.2 10.2,0 -14.5,37.9 c -6.9,18.2 -11.6,27.6 -18.2,33.3 -4.7,4.2 -9.4,5.8 -11.9,6.3 L 211,257 c 2.4,-0.8 5.6,-2.3 8.5,-4.7 2.6,-2.1 5.9,-5.8 8.1,-10.8 0.4,-1 0.8,-1.8 0.8,-2.3 0,-0.5 -0.2,-1.3 -0.7,-2.5 l -19.7,-49 10.7,0 z m 64.8,-15.3 0,15.3 13.8,0 0,7.4 -13.8,0 0,28.7 c 0,6.6 1.9,10.3 7.2,10.3 2.5,0 4.4,-0.3 5.6,-0.7 l 0.4,7.2 c -1.9,0.8 -4.8,1.3 -8.6,1.3 -4.5,0 -8.1,-1.4 -10.4,-4.1 -2.7,-2.9 -3.7,-7.6 -3.7,-13.8 l 0,-29 -8.2,0 0,-7.4 8.2,0 0,-12.7 9.5,-2.5 z m 31.7,43.6 c 0.2,13.1 8.6,18.4 18.2,18.4 6.9,0 11.1,-1.2 14.7,-2.7 l 1.6,6.9 c -3.4,1.5 -9.2,3.3 -17.7,3.3 -16.4,0 -26.1,-10.8 -26.1,-26.8 0,-16 9.4,-28.7 24.9,-28.7 17.3,0 22,15.3 22,25 0,2 -0.2,3.5 -0.3,4.5 l -37.3,0 z m 28.3,-6.9 c 0.1,-6.1 -2.5,-15.7 -13.4,-15.7 -9.8,0 -14.1,9 -14.8,15.7 l 28.2,0 z m 23.5,-4.9 c 0,-6.3 -0.1,-11.6 -0.4,-16.6 l 8.5,0 0.3,10.4 0.4,0 c 2.4,-7.1 8.2,-11.6 14.7,-11.6 1.1,0 1.9,0.1 2.7,0.3 l 0,9.1 c -1,-0.2 -2,-0.3 -3.3,-0.3 -6.8,0 -11.6,5.2 -13,12.4 -0.2,1.3 -0.4,2.9 -0.4,4.5 l 0,28.3 -9.5,0 0,-36.5 z"/></g><path id="circle8" d="m 304.39999,21.399999 a 21.4,21.4 0 0 1 -21.4,21.4 21.4,21.4 0 0 1 -21.4,-21.4 21.4,21.4 0 0 1 21.4,-21.399999 21.4,21.4 0 0 1 21.4,21.399999 z" style="fill:#000;fill-opacity:1"/><path style="fill:#000;fill-opacity:1" id="path25" d="m 173.2,307.2 c -65.5,0 -122.6,-23.5 -152.3,-58.3 22.5,62.3 82.2,106.9 152.3,106.9 70.1,0 129.8,-44.6 152.3,-106.9 -29.7,34.8 -86.8,58.3 -152.3,58.3 z"/><path style="fill:#000;fill-opacity:1" id="path42" d="M 173.2,80.800001 C 238.7,80.800001 295.8,104.3 325.5,139.1 303,76.800001 243.3,32.200001 173.2,32.200001 103.1,32.200001 43.4,76.800001 21,139.1 50.7,104.4 107.7,80.800001 173.2,80.800001 Z"/><path id="circle44" d="m 89.5,375.19999 a 25.799999,25.799999 0 0 1 -25.8,25.8 25.799999,25.799999 0 0 1 -25.799999,-25.8 25.799999,25.799999 0 0 1 25.799999,-25.8 25.799999,25.799999 0 0 1 25.8,25.8 z" style="fill:#000;fill-opacity:1"/><path id="circle46" d="m 54,50.800001 a 15.7,15.7 0 0 1 -15.700002,15.7 15.7,15.7 0 0 1 -15.699999,-15.7 15.7,15.7 0 0 1 15.699999,-15.7 15.7,15.7 0 0 1 15.700002,15.7 z" style="fill:#000;fill-opacity:1"/></g></svg>