<svg xmlns="http://www.w3.org/2000/svg" xmlns:svg="http://www.w3.org/2000/svg" id="svg2" width="200.016" height="233.352" version="1.1" viewBox="0 0 200.016 233.352"><metadata id="metadata14"/><path style="fill:#000" id="path6" d="m 23.912,192.32349 0,-87.23369 24.411207,0 24.411207,32.07121 24.411202,-32.07121 24.411214,0 0,87.23369 -24.411214,0 0,-50.03107 -24.411202,32.07118 -24.411207,-32.07118 0,50.03107 z"/><path style="fill:#000" id="path8" d="m 151.45965,203.30485 -29.90282,-47.66318 19.93521,0 0,-50.55187 19.93524,0 0,50.55187 19.93523,0 z"/><path id="path4" d="m 191.16077,49.483033 c 2.43074,2.430746 4.51424,5.729617 6.25049,9.896607 1.73623,4.166997 2.60436,7.986739 2.60436,11.459228 l 0,150.011712 c 0,3.4725 -1.21537,6.42411 -3.64611,8.85486 -2.43076,2.43075 -5.38237,3.64612 -8.85486,3.64612 l -175.013673,0 c -3.4724954,0 -6.4241063,-1.21537 -8.8548583,-3.64612 C 1.2153729,227.27469 0,224.32308 0,220.85058 L 0,12.500982 C 0,9.028484 1.2153729,6.076864 3.6461187,3.646119 6.0768707,1.215373 9.0284816,0 12.500977,0 L 129.17676,0 c 3.4725,0 7.29223,0.868119 11.45922,2.604369 4.167,1.736245 7.46586,3.819743 9.89661,6.250491 z m -57.81702,-31.773312 0,48.962157 48.96216,0 c -0.86813,-2.517555 -1.82306,-4.29721 -2.86481,-5.338959 l -40.75839,-40.75839 c -1.04175,-1.041749 -2.82141,-1.996683 -5.33896,-2.864808 z m 50.0039,198.973869 0,-133.343746 -54.17089,0 c -3.4725,0 -6.42411,-1.215372 -8.85486,-3.646118 -2.43075,-2.430746 -3.64612,-5.382363 -3.64612,-8.854858 l 0,-54.170896 -100.007813,0 0,200.015618 z"/></svg>