<svg xmlns="http://www.w3.org/2000/svg" xmlns:svg="http://www.w3.org/2000/svg" id="svg2" width="724" height="724" preserveAspectRatio="xMidYMid" version="1.1" viewBox="0 0 724 724"><metadata id="metadata22"/><defs id="defs4"><linearGradient id="gradientFill-1" x1="0" x2="1" y1="0" y2="1" gradientUnits="objectBoundingBox" spreadMethod="pad"><stop id="stop7" offset="0" stop-color="#CBCED0" stop-opacity="1"/><stop id="stop9" offset="1" stop-color="#84838B" stop-opacity="1"/></linearGradient><linearGradient id="gradientFill-2" x1="0" x2="1" y1="0" y2="1" gradientUnits="objectBoundingBox" spreadMethod="pad"><stop id="stop12" offset="0" stop-color="#276DC3" stop-opacity="1"/><stop id="stop14" offset="1" stop-color="#165CAA" stop-opacity="1"/></linearGradient><linearGradient id="gradientFill-1-3" x1=".741" x2="590.863" y1="3.666" y2="593.787" gradientTransform="matrix(1.2219423,0,0,0.81836924,23.310253,53.208857)" gradientUnits="userSpaceOnUse" spreadMethod="pad"><stop id="stop7-6" offset="0" stop-color="#CBCED0" stop-opacity="1"/><stop id="stop9-7" offset="1" stop-color="#84838B" stop-opacity="1"/></linearGradient><linearGradient id="gradientFill-2-5" x1="301.026" x2="703.068" y1="151.401" y2="553.442" gradientTransform="matrix(0.9899476,0,0,1.0101545,23.310253,53.208857)" gradientUnits="userSpaceOnUse" spreadMethod="pad"><stop id="stop12-3" offset="0" stop-color="#276DC3" stop-opacity="1"/><stop id="stop14-5" offset="1" stop-color="#165CAA" stop-opacity="1"/></linearGradient></defs><g id="g4200" transform="translate(-22.763674,0)"><path id="path16-6" d="m 384.76367,56.208984 c -199.124,0 -360.546873,108.108746 -360.546873,241.468746 0,113.82208 117.599163,209.23453 275.857423,234.75196 l 0,-74.76563 C 219.74349,428.88387 165.9043,376.08056 165.9043,315.69336 c 0,-91.17 122.69487,-165.07813 274.04687,-165.07813 151.351,0 263.04688,50.56513 263.04688,165.07813 0,54.07003 -24.8971,93.86951 -67.09375,120.83008 1.62457,1.40032 3.25156,2.91056 4.86914,4.6289 6.0454,6.4212 9.74593,13.0429 11.17773,15.85352 l 1.14649,1.93359 c 57.32401,-42.75506 92.21289,-99.27625 92.21289,-161.26172 0,-133.36 -161.42188,-241.468746 -360.54688,-241.468746 z m 267.1875,400.796876 -0.375,-0.63086 1.07813,2.07031 c 0,0 -0.2582,-0.56607 -0.70313,-1.43945 z m -169.84375,22.37109 c -5.45973,0.37233 -10.9909,0.66444 -16.58203,0.88672 l 0.01,52.79492 c 15.00457,-2.30001 29.65279,-5.22769 43.8789,-8.73828 L 496.8457,500.7168 c -0.0929,-0.15923 -3.0033,-5.15276 -6.90039,-11.01563 -2.52078,-3.79234 -5.84411,-7.87626 -7.83789,-10.32422 z" style="fill:#000;fill-opacity:1;fill-rule:evenodd"/><path style="fill:#000;fill-opacity:1;fill-rule:evenodd;stroke:none;stroke-width:1;stroke-miterlimit:4;stroke-dasharray:none;stroke-opacity:1" id="path4192" d="m 573.31025,430.20886 c 0,0 21.822,6.585 34.5,13 4.399,2.226 12.01,6.668 17.5,12.5 5.378,5.712 8,11.5 8,11.5 l 86.00001,145 -139.00001,0.062 -65,-122.062 c 0,0 -13.31,-22.869 -21.5,-29.5 -6.832,-5.531 -9.745,-7.5 -16.5,-7.5 -4.702,0 -33.026,0 -33.026,0 l 0.026,158.974 -123,0.052 0,-406.088 247,0 c 0,0 112.5,2.029 112.5,109.062 0,107.033 -107.5,115 -107.5,115 z m -53.5,-135.976 -74.463,-0.048 -0.037,69.05 74.5,-0.024 c 0,0 34.5,-0.107 34.5,-35.125 0,-35.722 -34.5,-33.853 -34.5,-33.853 z"/></g></svg>